/* XPM */
static const char *coin6[] = {
/* columns rows colors chars-per-pixel */
"32 32 6 1 ",
"  c #72683E",
". c #DFB500",
"X c #E8C831",
"o c #F8D634",
"O c #FFF83A",
"+ c #8D768A",
/* pixels */
"++++++++++++++++++++++++++++++++",
"++++++++++++++++++++++++++++++++",
"++++++++++++++++++++++++++++++++",
"++++++++++++++++++++++++++++++++",
"++++++++++++++++++++++++++++++++",
"++++++++++++++++++++++++++++++++",
"++++++++++++++++++++++++++++++++",
"+++++++++++++      +++++++++++++",
"++++++++++++ OO OOO ++++++++++++",
"+++++++++++ oo OXXXO +++++++++++",
"++++++++++ OO OXXXXXO ++++++++++",
"++++++++++ oo OXXXXXO ++++++++++",
"++++++++++ OO OXXXXXO ++++++++++",
"+++++++++ oo OXXXXXXXO +++++++++",
"+++++++++ OO OXXXXXXXO +++++++++",
"+++++++++ OO XXXXXXXXX +++++++++",
"+++++++++ oo XXXXXXXXX +++++++++",
"+++++++++ OO XXXXXXXXX +++++++++",
"+++++++++ oo XXXXXXXXX +++++++++",
"++++++++++ .. .XXXXXX ++++++++++",
"++++++++++ oo .XXXXX. ++++++++++",
"++++++++++ .. .XXXXX. ++++++++++",
"+++++++++++ oo .XXXX +++++++++++",
"++++++++++++ .. ... ++++++++++++",
"+++++++++++++      +++++++++++++",
"++++++++++++++++++++++++++++++++",
"++++++++++++++++++++++++++++++++",
"++++++++++++++++++++++++++++++++",
"++++++++++++++++++++++++++++++++",
"++++++++++++++++++++++++++++++++",
"++++++++++++++++++++++++++++++++",
"++++++++++++++++++++++++++++++++"
};
