/* XPM */
static const char *coin1[] = {
/* columns rows colors chars-per-pixel */
"32 32 6 1 ",
"  c #72683E",
". c #DFB500",
"X c #E8C831",
"o c #F8D634",
"O c #FFF83A",
"+ c #8D768A",
/* pixels */
"++++++++++++++++++++++++++++++++",
"++++++++++++++++++++++++++++++++",
"++++++++++++++++++++++++++++++++",
"++++++++++++++++++++++++++++++++",
"++++++++++++++++++++++++++++++++",
"++++++++++++++++++++++++++++++++",
"++++++++++++++++++++++++++++++++",
"+++++++++++++      +++++++++++++",
"++++++++++++ OO OOO ++++++++++++",
"+++++++++++ oo XXXXO +++++++++++",
"++++++++++ OO XXXXXXO ++++++++++",
"++++++++++ oo XXXXXXO ++++++++++",
"++++++++++ OO XXXXXXO ++++++++++",
"+++++++++ oo XXXXXXXXO +++++++++",
"+++++++++ OO XXXXXXXXO +++++++++",
"+++++++++ OO XXXXXXXXX +++++++++",
"+++++++++ oo XXXXXXXXX +++++++++",
"+++++++++ OO XXXXXXXXX +++++++++",
"+++++++++ oo XXXXXXXXX +++++++++",
"++++++++++ .. XXXXXXX ++++++++++",
"++++++++++ oo XXXXXXX ++++++++++",
"++++++++++ .. XXXXXX. ++++++++++",
"+++++++++++ oo .XXXX +++++++++++",
"++++++++++++ .. ... ++++++++++++",
"+++++++++++++      +++++++++++++",
"++++++++++++++++++++++++++++++++",
"++++++++++++++++++++++++++++++++",
"++++++++++++++++++++++++++++++++",
"++++++++++++++++++++++++++++++++",
"++++++++++++++++++++++++++++++++",
"++++++++++++++++++++++++++++++++",
"++++++++++++++++++++++++++++++++"
};
