/* XPM */
static const char *coin9[] = {
/* columns rows colors chars-per-pixel */
"32 32 6 1 ",
"  c #72683E",
". c #DFB500",
"X c #E8C831",
"o c #F8D634",
"O c #FFF83A",
"+ c #8D768A",
/* pixels */
"++++++++++++++++++++++++++++++++",
"++++++++++++++++++++++++++++++++",
"++++++++++++++++++++++++++++++++",
"++++++++++++++++++++++++++++++++",
"++++++++++++++++++++++++++++++++",
"++++++++++++++++++++++++++++++++",
"++++++++++++++++++++++++++++++++",
"+++++++++++++      +++++++++++++",
"++++++++++++ OOO OO ++++++++++++",
"+++++++++++ OXXXO oo +++++++++++",
"++++++++++ OXXXXXO OO ++++++++++",
"++++++++++ OXXXXXO oo ++++++++++",
"++++++++++ OXXXXXO OO ++++++++++",
"+++++++++ OXXXXXXXO oo +++++++++",
"+++++++++ OXXXXXXXO OO +++++++++",
"+++++++++ XXXXXXXXX OO +++++++++",
"+++++++++ XXXXXXXXX oo +++++++++",
"+++++++++ XXXXXXXXX OO +++++++++",
"+++++++++ XXXXXXXXX oo +++++++++",
"++++++++++ XXXXXXX .. ++++++++++",
"++++++++++ .XXXXXX oo ++++++++++",
"++++++++++ .XXXX.. .. ++++++++++",
"+++++++++++ XXXX. oo +++++++++++",
"++++++++++++ ... .. ++++++++++++",
"+++++++++++++      +++++++++++++",
"++++++++++++++++++++++++++++++++",
"++++++++++++++++++++++++++++++++",
"++++++++++++++++++++++++++++++++",
"++++++++++++++++++++++++++++++++",
"++++++++++++++++++++++++++++++++",
"++++++++++++++++++++++++++++++++",
"++++++++++++++++++++++++++++++++"
};
