/* XPM */
static const char *coin3[] = {
/* columns rows colors chars-per-pixel */
"32 32 6 1 ",
"  c #72683E",
". c #DFB500",
"X c #E8C831",
"o c #F8D634",
"O c #FFF83A",
"+ c #8D768A",
/* pixels */
"++++++++++++++++++++++++++++++++",
"++++++++++++++++++++++++++++++++",
"++++++++++++++++++++++++++++++++",
"++++++++++++++++++++++++++++++++",
"++++++++++++++++++++++++++++++++",
"++++++++++++++++++++++++++++++++",
"++++++++++++++++++++++++++++++++",
"++++++++++++++    ++++++++++++++",
"+++++++++++++  OOO +++++++++++++",
"+++++++++++++  ooo +++++++++++++",
"+++++++++++++ X OOO ++++++++++++",
"++++++++++++ .X ooo ++++++++++++",
"++++++++++++ XX OOO ++++++++++++",
"++++++++++++ XXX ooo +++++++++++",
"++++++++++++ XXX OOO +++++++++++",
"++++++++++++ XXX OOO +++++++++++",
"++++++++++++ XXX ooo +++++++++++",
"++++++++++++ XXX OOO +++++++++++",
"++++++++++++ XXX ooo +++++++++++",
"++++++++++++ XX ... ++++++++++++",
"++++++++++++ .X ooo ++++++++++++",
"+++++++++++++ X ... ++++++++++++",
"+++++++++++++  ooo +++++++++++++",
"+++++++++++++  ... +++++++++++++",
"++++++++++++++    ++++++++++++++",
"++++++++++++++++++++++++++++++++",
"++++++++++++++++++++++++++++++++",
"++++++++++++++++++++++++++++++++",
"++++++++++++++++++++++++++++++++",
"++++++++++++++++++++++++++++++++",
"++++++++++++++++++++++++++++++++",
"++++++++++++++++++++++++++++++++"
};
