/* XPM */
static const char *frame_50[] = {
/* columns rows colors chars-per-pixel */
"32 32 8 1 ",
"  c #0C1317",
". c #A84111",
"X c #82A368",
"o c #3B6983",
"O c #00EDFF",
"+ c #D3D9B2",
"@ c #DEF9FC",
"# c #8D768A",
/* pixels */
"################################",
"##############ooooo#######O#####",
"#############ooooooo####O#OO#O##",
"############oo   oooo##O#OOOOO##",
"############o +++ ooo##OOOOOO###",
"############o+++++ oo###O@@OO###",
"###########oo ++  +ooo#.O@.@O.##",
"##########ooo  +  +ooo#..@.@..##",
"##########oo +  ++  ooo#.....###",
"###########o  +++   oo####.#####",
"#########XXoo  + + oooX###.#####",
"#######XXXXXXo ++ oooXXXX#.#####",
"########XXXXXXo  ooXXXXXX#.#####",
"####oooooXXXXXXX XXXXXXX#++#####",
"##++++ oooXXXXXX XXXXXXoo#.#####",
"#+#+  +ooooXXXXXoXXXXXooo+++####",
"###++   oooooXXXoXXXoooo +++o###",
"###o    oooooooXXXoooooo  + o###",
"###o   ooooooooXXXoooooo +. o###",
"####o oooooooooXoXoooooo  . o###",
"#####ooo##oooooXoXoooo#o  .o####",
"##########oooooXoXoooo#ooo.#####",
"##########oooooXXXoooo##oo.#####",
"#########ooooooXXXoooo##oo.#####",
"#########ooooooXoXooooo###.#####",
"#########ooooooXoXooooo###.#####",
"########ooooooXXoXooooo###.#####",
"########ooooooXXoXooooo###.#####",
"########ooooooXX XXoooo###.#####",
"#########oooooX  XXoooo###.#####",
"###########oooX  XXooo####.#####",
"################################"
};
