/* XPM */
static const char *frame_61[] = {
/* columns rows colors chars-per-pixel */
"32 32 7 1 ",
"  c black",
". c #5A5875",
"X c #812611",
"o c #42428F",
"O c #748F93",
"+ c #DEF9FC",
"@ c #8D768A",
/* pixels */
"@@@@@@@@@@@@@@@@@@@@@@@@@@@@@@@@",
"@@@@@@@@@@@@@@@@@@@..@@@@@@@@@@@",
"@@@@@@@@@@@@@@@@@@.@@@@@@@@@@@@@",
"@@@@@@@@@@@@@@@@@++...@@@@@@@@@@",
"@@@@@@@@@@@@@..@+++++..@@@@@@@@@",
"@@@@@X@@@@@@.@@.++  +...@@@@@@@@",
"@@@@+X@@@@@@@@.+ ++++..@.@@@@@@@",
"@@@++OX@@@@@@@.+++++++..@@@@@@@@",
"@@++OOX@@@@@@..++   ++..@@@@@@@@",
"@@+OOOX@@@@@.@..+   +@@@.@@@@@@@",
"@++OO@@X@@@@@@.@@+  +@oo@.@@@@@@",
"@++O@@@X@@@@@.@oo+++Ooooo@@@@@@@",
"@+OO@@@X@@@@@@ooooOOOoooo@@@@@@@",
"@+O@@@@@X@@@@@oooooOoooooO@@@@@@",
"@+O@@@@@X@@@@@OooooooooooO@@@@@@",
"@+O@@@@@X@@@@OOooooooooo@OO@@@@@",
"@@+@@@@@++@@O@O@oooooooo@@O@@@@@",
"@@+@@@@@@X+OOO@@@ooooooo@@@O@@@@",
"@@@@@@@@+++OO@@@@@oooooo@@@OO@@@",
"@@@@@@@@+++@@@@@@oooooooo@@@OO@@",
"@@@@@@@@@+X@@@@@@oooooooo@@@@OO@",
"@@@@@@@@@@X@@@@@@ooooooooo@@@OO@",
"@@@@@@@@@@@X@@@@oooooooooo@@O@O@",
"@@@@@@@@@@@X@@@@oooooooooo@@@@O@",
"@@@@@@@@@@@X@@@@oooooooooo@@@@O@",
"@@@@@@@@@@@@X@@oooooooooo@o@@@@@",
"@@@@@@@@@@@@X@@oo@oooooo@@o@@@@@",
"@@@@@@@@@@@@X@@o@ooooooo@@o@@@@@",
"@@@@@@@@@@@@@X@@@@o@oo@o@@o@@@@@",
"@@@@@@@@@@@@@X@@@@@o@o@@o@@@@@@@",
"@@@@@@@@@@@@@@@@@@@@@o@@@@@@@@@@",
"@@@@@@@@@@@@@@@@@@@@@@@@@@@@@@@@"
};
