/* XPM */
static const char *frame_48[] = {
/* columns rows colors chars-per-pixel */
"48 48 10 1 ",
"  c black",
". c #0C0E19",
"X c #402717",
"o c #573A23",
"O c #AC7B5D",
"+ c #1D438A",
"@ c #2C65B5",
"# c #A4A8B5",
"$ c #DBD2C7",
"% c None",
/* pixels */
"%%%%%%%%%%%%%%%%%%%%%%%%%%%%%%%%%%%%%%%%%%%%%%%%",
"%%%%%%%%%%%%%%%%%%%%%%%%%%%%%%%%%%%%%%%%%%%%%%%%",
"%%%%%%%%%%%%%%%%%%%%%%%%%%%%%%%%%%%%%%%%%%%%%%%%",
"%%%%%%%%%%%%%%%%%%%%%%%%%%%%%%%%%%%%%%%%%%%%%%%%",
"%%%%%%%%%%%%%%%%%%%%%%%%%%%%%%%%%%%%%%%%%%%%%%%%",
"%%%%%%%%%%%%%%%%%%%%%%%%%%%%%%%%%%%%%%%%%%%%%%%%",
"%%%%%%%%%%%%%%%%%%%%%%%%%%%%%%%%%%%%%%%%%%%%%%%%",
"%%%%%%%%%%%%%%%%%%%%%%%%%%%%%%%%%%%%%%%%%%%%%%%%",
"%%%%%%%%%%%%%%%%%%%%%%%%%%%%%%%%%%%%%%%%%%%%%%%%",
"%%%%%%%%%%%%%%%%%%%%%%%%%%%%%%%%%%%%%%%%%%%%%%%%",
"%%%%%%%%%%%%%%%%%%%%%%%%%%%%%%%%%%%%%%%%%%%%%%%%",
"%%%%%%%%%%%%%%%%%%%%%%%%%%%%%%%%%%%%%%%%%%%%%%%%",
"%%%%%%%%%%%%%%%%%%%%%%%%%%%%%%%%%%%%%%%%%%%%%%%%",
"%%%%%%%%%%%%%%%%%%%%%%%%%%%%%%%%%%%%%%%%%%%%%%%%",
"%%%%%%%%%%%%%%%%%%%%%%%%%%%%%%%%%%%%%%%%%%%%%%%%",
"%%%%%%%%%%%%%%%%%%%%%%%%%%%%%%%%%%%%%%%%%%%%%%%%",
"%%%%%%%%%%%%%%%%%%%%%%%%%%%%%%%%%%%%%%%%%%%%%%%%",
"%%%%%%%%%%%%%%%%%%%%%%%%%%%%%%%%%%%%%%%%%%%%%%%%",
"%%%%%%%%%%%%%%%%%%%%%%%%%%%%%%%%%%%%%%%%%%%%%%%%",
"%%%%%%%%%%%%%%%%%%%%%%%%%%%%%%%%%%%%%%%%%%%%%%%%",
"%%%%%%%%%%%%%%%%%%%%%%%%%%%%%%%%%%%%%%%%%%%%%%%%",
"%%%%%%%%%%%%%%%%%%%%%%%%%%%%%%%%%%%%%%%%%%%%%%%%",
"%%%%%%%%%%%%%%%%%%%%%%%%%%%%%%%%%%%%%%%%%%%%%%%%",
"%%%%%%%%%%%%%%%%%%%%%%%  %    %%%%%%%%%%%%%%%%%%",
"%%%%%%%%%%%%%%%%%%%%%   o Xoo %%%%%%%%%%%%%%%%%%",
"%%%%%%%%%%%%%%%%%%%% XoooXoo  %%%%%%%%%%%%%%%%%%",
"%%%%%%%%%%%%%%%%%%%% ooooooooX %%%%%%%%%%%%%%%%%",
"%%%%%%%%%%%%%%%%%%% XoooooooooX %%%%%%%%%%%%%%%%",
"%%%%%%%%%%%%%%%%%%% XoooooooooX %%%%%%%%%%%%%%%%",
"%%%%%%%%%%%%%%%%%%% XoooooooooX %%%%%%%%%%%%%%%%",
"%%%%%%%%%%%%%%%%%%% XXoooooooXX %%%%%%%%%%%%%%%%",
"%%%%%%%%%%%%%%%%%%%% XXXoooXXXX %%%%%%%%%%%%%%%%",
"%%%%%%%%%%%%%%%%%%%% XXXXXXXXX %%%%%%%%%%%%%%%%%",
"%%%%%%%%%%%%%%%%%%%% OXXXXXXXO  %%%%%%%%%%%%%%%%",
"%%%%%%%%%%%%%%%%%%%%% OOXXXOOO X %%%%%%%%%%%%%%%",
"%%%%%%%%%%%%%%%%%%%%% oOOOOOo XX %%%%%%%%%%%%%%%",
"%%%%%%%%%%%%%%%%%%%% ooooooooXXX %%%%%%%%%%%%%%%",
"%%%%%%%%%%%%%%%%%%%% oooooooXXX#$ %%%%%%%%%%%%%%",
"%%%%%%%%%%%%%%%%%%%% +@@+@@+ X #$$ %%%%%%%%%%%%%",
"%%%%%%%%%%%%%%%%%%%. +++ ooo   %$$ %%%%%%%%%%%%%",
"%%%%%%%%%%%%%%%%%%.. XX  ooo .. #$ %%%%%%%%%%%%%",
"%%%%%%%%%%%%%%%%%%.............%   %%%%%%%%%%%%%",
"%%%%%%%%%%%%%%%%%%%...........%%%%%%%%%%%%%%%%%%",
"%%%%%%%%%%%%%%%%%%%%%%%%%%%%%%%%%%%%%%%%%%%%%%%%",
"%%%%%%%%%%%%%%%%%%%%%%%%%%%%%%%%%%%%%%%%%%%%%%%%",
"%%%%%%%%%%%%%%%%%%%%%%%%%%%%%%%%%%%%%%%%%%%%%%%%",
"%%%%%%%%%%%%%%%%%%%%%%%%%%%%%%%%%%%%%%%%%%%%%%%%",
"%%%%%%%%%%%%%%%%%%%%%%%%%%%%%%%%%%%%%%%%%%%%%%%%"
};
