/* XPM */
static const char *frame_50[] = {
/* columns rows colors chars-per-pixel */
"48 48 11 1 ",
"  c black",
". c #0C0E19",
"X c #402717",
"o c #573A23",
"O c #AC7B5D",
"+ c #1D438A",
"@ c #A4A8B5",
"# c #C1AC8F",
"$ c #DBD2C7",
"% c white",
"& c None",
/* pixels */
"&&&&&&&&&&&&&&&&&&&&&&&&&&&&&&&&&&&&&&&&&&&&&&&&",
"&&&&&&&&&&&&&&&&&&&&&&&&&&&&&&&&&&&&&&&&&&&&&&&&",
"&&&&&&&&&&&&&&&&&&&&&&&&&&&&&&&&&&&&&&&&&&&&&&&&",
"&&&&&&&&&&&&&&&&&&&&&&&&&&&&&&&&&&&&&&&&&&&&&&&&",
"&&&&&&&&&&&&&&&&&&&&&&&&&&&&&&&&&&&&&&&&&&&&&&&&",
"&&&&&&&&&&&&&&&&&&&&&&&&&&&&&&&&&&&&&&&&&&&&&&&&",
"&&&&&&&&&&&&&&&&&&&&&&&&&&&&&&&&&&&&&&&&&&&&&&&&",
"&&&&&&&&&&&&&&&&&&&&&&&&&&&&&&&&&&&&&&&&&&&&&&&&",
"&&&&&&&&&&&&&&&&&&&&&&&&&&&&&&&&&&&&&&&&&&&&&&&&",
"&&&&&&&&&&&&&&&&&&&&&&&&&&&&&&&&&&&&&&&&&&&&&&&&",
"&&&&&&&&&&&&&&&&&&&&&&&&&&&&&&&&&&&&&&&&&&&&&&&&",
"&&&&&&&&&&&&&&&&&&&&&&&&&&&&&&&&&&&&&&&&&&&&&&&&",
"&&&&&&&&&&&&&&&&&&&&&&&&&&&&&&&&&&&&&&&&&&&&&&&&",
"&&&&&&&&&&&&&&&&&&&&&&&&&&&&&&&&&&&&&&&&&&&&&&&&",
"&&&&&&&&&&&&&&&&&&&&&&&&&&&&&&&&&&&&&&&&&&&&&&&&",
"&&&&&&&&&&&&&&&&&&&&&&&&&&&&&&&&&&&&&&&&&&&&&&&&",
"&&&&&&&&&&&&&&&&&&&&&&&&&&&&&&&&&&&&&&&&&&&&&&&&",
"&&&&&&&&&&&&&&&&&&&&&&&&&&&&&&&&&&&&&&&&&&&&&&&&",
"&&&&&&&&&&&&&&&&&&&&&&&&&&&&&&&&&&&&&&&&&&&&&&&&",
"&&&&&&&&&&&&&&&&&&&&&&&&&&&&&&&&&&&&&&&&&&&&&&&&",
"&&&&&&&&&&&&&&&&&&&&&&&&&&&&&&&&&&&&&&&&&&&&&&&&",
"&&&&&&&&&&&&&&&&&&&&&&&&&&&&&&&&&&&&&&&&&&&&&&&&",
"&&&&&&&&&&&&&&&&&&&&&&&&&&&&&&&&&&&&&&&&&&&&&&&&",
"&&&&&&&&&&&&&&&&&&&&&&  &    &&&&&&&&&&&&&&&&&&&",
"&&&&&&&&&&&&&&&&&&&&   o Xoo &&&&&&&&&&&&&&&&&&&",
"&&&&&&&&&&&&&&&&&&& XoooXoo  &&&&&&&&&&&&&&&&&&&",
"&&&&&&&&&&&&&&&&&&& ooooooooX &&&&&&&&&&&&&&&&&&",
"&&&&&&&&&&&&&&&&&& XoooooooooX &&&&&&&&&&&&&&&&&",
"&&&&&&&&&&&&&&&&&& XoooooooooX &&&&&&&&&&&&&&&&&",
"&&&&&&&&&&&&&&&%%% XoooooooooX &&&&&&&&&&&&&&&&&",
"&&&&&&&&&&&&&&%%%& XXoooooooXX &&&&&&&&&&&&&&&&&",
"&&&&&&&&&&&&&%%%&&& XXXoooXXXX &&&&&&&&&&&&&&&&&",
"&&&&&&&&&&&&&%%&&&& XXXXXXXXX &&&&&&&&&&&&&&&&&&",
"&&&&&&&&&&&&%%%&&&& OXXXXXXXO &&&&&&&&&&&&&&&&&&",
"&&&&&&&&&&&&%%&&&&&& OOXXXOO &&&&&&&&&&&&&&&&&&&",
"&&&&&&&&&&&&%%&&&&& #oOOOOOo  &&&&&&&&&&&&&&&&&&",
"&&&&&&&&&&&&&%&&&  O#oooooooOO &&&&&&&&&&&&&&&&&",
"&&&&&&&&&&&&&&&& XXOOoooooooOO &&&&&&&&&&&&&&&&&",
"&&&&&&&&&&&&&&  $$XX XoooXX+  &&&&&&&&&&&&&&&&&&",
"&&&&&&&&&&&&& $$$@@XX+++ ooo .&&&&&&&&&&&&&&&&&&",
"&&&&&&&&&&&&& $@@@   XX  ooo ..&&&&&&&&&&&&&&&&&",
"&&&&&&&&&&&&&     .............&&&&&&&&&&&&&&&&&",
"&&&&&&&&&&&&&&&&&&&...........&&&&&&&&&&&&&&&&&&",
"&&&&&&&&&&&&&&&&&&&&&&&&&&&&&&&&&&&&&&&&&&&&&&&&",
"&&&&&&&&&&&&&&&&&&&&&&&&&&&&&&&&&&&&&&&&&&&&&&&&",
"&&&&&&&&&&&&&&&&&&&&&&&&&&&&&&&&&&&&&&&&&&&&&&&&",
"&&&&&&&&&&&&&&&&&&&&&&&&&&&&&&&&&&&&&&&&&&&&&&&&",
"&&&&&&&&&&&&&&&&&&&&&&&&&&&&&&&&&&&&&&&&&&&&&&&&"
};
