/* XPM */
static const char *frame_44[] = {
/* columns rows colors chars-per-pixel */
"48 48 13 1 ",
"  c black",
". c #0C0E19",
"X c #21110D",
"o c #402717",
"O c #573A23",
"+ c #AC7B5D",
"@ c #1D438A",
"# c #2C65B5",
"$ c #787E97",
"% c #A4A8B5",
"& c #C1AC8F",
"* c white",
"= c None",
/* pixels */
"================================================",
"================================================",
"================================================",
"================================================",
"================================================",
"================================================",
"================================================",
"================================================",
"================================================",
"================================================",
"================================================",
"================================================",
"================================================",
"================================================",
"================================================",
"================================================",
"================================================",
"================================================",
"================================================",
"================================================",
"================================================",
"================================================",
"==================    =  =======================",
"================== OOo O   =====================",
"==================  OOoOoOO ====================",
"================= oOOOOOOOO ====================",
"================ oOOOOOOOOOO ===================",
"================ oOoOOOOoOOO ===================",
"================ oooOOOOo+oOo ==================",
"================ oOoOOOo+++oo ==================",
"================ oO+oOo++&&+o ==================",
"================ oo++o+X&&X& ===================",
"================= oo++&X&&X& ===================",
"================== ooo+&&&&+ ===================",
"================== oOOo++++ ====================",
"=================== OOO$$$o+ ===================",
"===========*====== &&OO%%%o+ ===================",
"===========**==== &&&Oo%%%oo ===================",
"============***== &&+o@####o ===================",
"=============****=   @##@## ..==================",
"===============****. oO  oO ...=================",
"==================.............=================",
"===================...........==================",
"================================================",
"================================================",
"================================================",
"================================================",
"================================================"
};
