/* XPM */
static const char *frame_39[] = {
/* columns rows colors chars-per-pixel */
"48 48 10 1 ",
"  c black",
". c #0C0E19",
"X c #21110D",
"o c #402717",
"O c #573A23",
"+ c #AC7B5D",
"@ c #787E97",
"# c #A4A8B5",
"$ c #C1AC8F",
"% c None",
/* pixels */
"%%%%%%%%%%%%%%%%%%%%%%%%%%%%%%%%%%%%%%%%%%%%%%%%",
"%%%%%%%%%%%%%%%%%%%%%%%%%%%%%%%%%%%%%%%%%%%%%%%%",
"%%%%%%%%%%%%%%%%%%%%%%%%%%%%%%%%%%%%%%%%%%%%%%%%",
"%%%%%%%%%%%%%%%%%%%%%%%%%%%%%%%%%%%%%%%%%%%%%%%%",
"%%%%%%%%%%%%%%%%%%%%%%%%%%%%%%%%%%%%%%%%%%%%%%%%",
"%%%%%%%%%%%%%%%%%%%%%%%%%%%%%%%%%%%%%%%%%%%%%%%%",
"%%%%%%%%%%%%%%%%%%%%%%%%%%%%%%%%%%%%%%%%%%%%%%%%",
"%%%%%%%%%%%%%%%%%%%%%%%%%%%%%%%%%%%%%%%%%%%%%%%%",
"%%%%%%%%%%%%%%%%%%%%%%%%%%%%%%%%%%%%%%%%%%%%%%%%",
"%%%%%%%%%%%%%%%%%%%%%%%%%%%%%%%%%%%%%%%%%%%%%%%%",
"%%%%%%%%%%%%%%%%%%%%%%%%%%%%%%%%%%%%%%%%%%%%%%%%",
"%%%%%%%%%%%%%%%%%%%%%%%%%%%%%%%%%%%%%%%%%%%%%%%%",
"%%%%%%%%%%%%%%%%%%%%%%%%%%%%%%%%%%%%%%%%%%%%%%%%",
"%%%%%%%%%%%%%%%%%%%%%%%%%%%%%%%%%%%%%%%%%%%%%%%%",
"%%%%%%%%%%%%%%%%%%%%%%%%%%%%%%%%%%%%%%%%%%%%%%%%",
"%%%%%%%%%%%%%%%%%%%%%%%%%%%%%%%%%%%%%%%%%%%%%%%%",
"%%%%%%%%%%%%%%%%%%%%%%%%%%%%%%%%%%%%%%%%%%%%%%%%",
"%%%%%%%%%%%%%%%%%%%%%%%%%%%%%%%%%%%%%%%%%%%%%%%%",
"%%%%%%%%%%%%%%%%%%%%%%%%%%%%%%%%%%%%%%%%%%%%%%%%",
"%%%%%%%%%%%%%%%%%%%%%%%%%%%%%%%%%%%%%%%%%%%%%%%%",
"%%%%%%%%%%%%%%%%%%%%%%%%%%%%%%%%%%%%%%%%%%%%%%%%",
"%%%%%%%%%%%%%%%%%%%%%%%%%%%%%%%%%%%%%%%%%%%%%%%%",
"%%%%%%%%%%%%%%%%%%%%%%%%%%%%%%%%%%%%%%%%%%%%%%%%",
"%%%%%%%%%%%%%%%%%%%%%%%%%%%%%%%%%%%%%%%%%%%%%%%%",
"%%%%%%%%%%%%%%%%%%%%    %  %%%%%%%%%%%%%%%%%%%%%",
"%%%%%%%%%%%%%%%%%%%% OOo O   %%%%%%%%%%%%%%%%%%%",
"%%%%%%%%%%%%%%%%%%%%  OOoOOOo %%%%%%%%%%%%%%%%%%",
"%%%%%%%%%%%%%%%%%%% oOOOOOOOO %%%%%%%%%%%%%%%%%%",
"%%%%%%%%%%%%%%%%%% oOOOOoOOOOo %%%%%%%%%%%%%%%%%",
"%%%%%%%%%%%%%%%%%% OOOooooOOOO %%%%%%%%%%%%%%%%%",
"%%%%%%%%%%%%%%%%%% OOOo++++oOO %%%%%%%%%%%%%%%%%",
"%%%%%%%%%%%%%%%%%% OOo++++++oO %%%%%%%%%%%%%%%%%",
"%%%%%%%%%%%%%%%%%% oO+X$$$X+o %%%%%%%%%%%%%%%%%%",
"%%%%%%%%%%%%%%%%%%% O$X$$$X$$ %%%%%%%%%%%%%%%%%%",
"%%%%%%%%%%%%%%%%%%% +$$$$$$$+ %%%%%%%%%%%%%%%%%%",
"%%%%%%%%%%%%%%%%%%%% +$$$$$+o %%%%%%%%%%%%%%%%%%",
"%%%%%%%%%%%%%%%%%%%% o+++++oO %%%%%%%%%%%%%%%%%%",
"%%%%%%%%%%%%%%%%%%% $$O@@@OOO+ %%%%%%%%%%%%%%%%%",
"%%%%%%%%%%%%%%%%%%% $$O@##OOO+ %%%%%%%%%%%%%%%%%",
"%%%%%%%%%%%%%%%%%%%% oOO  ooo %%%%%%%%%%%%%%%%%%",
"%%%%%%%%%%%%%%%%%%.. OOO . oo .%%%%%%%%%%%%%%%%%",
"%%%%%%%%%%%%%%%%%%.............%%%%%%%%%%%%%%%%%",
"%%%%%%%%%%%%%%%%%%%...........%%%%%%%%%%%%%%%%%%",
"%%%%%%%%%%%%%%%%%%%%%%%%%%%%%%%%%%%%%%%%%%%%%%%%",
"%%%%%%%%%%%%%%%%%%%%%%%%%%%%%%%%%%%%%%%%%%%%%%%%",
"%%%%%%%%%%%%%%%%%%%%%%%%%%%%%%%%%%%%%%%%%%%%%%%%",
"%%%%%%%%%%%%%%%%%%%%%%%%%%%%%%%%%%%%%%%%%%%%%%%%",
"%%%%%%%%%%%%%%%%%%%%%%%%%%%%%%%%%%%%%%%%%%%%%%%%"
};
