/* XPM */
static const char *frame_42[] = {
/* columns rows colors chars-per-pixel */
"48 48 12 1 ",
"  c black",
". c #0C0E19",
"X c #21110D",
"o c #402717",
"O c #573A23",
"+ c #0D205E",
"@ c #AC7B5D",
"# c #1D438A",
"$ c #2C65B5",
"% c #A4A8B5",
"& c #C1AC8F",
"* c None",
/* pixels */
"************************************************",
"************************************************",
"************************************************",
"************************************************",
"************************************************",
"************************************************",
"************************************************",
"************************************************",
"************************************************",
"************************************************",
"************************************************",
"************************************************",
"************************************************",
"************************************************",
"************************************************",
"************************************************",
"************************************************",
"************************************************",
"************************************************",
"************************************************",
"************************************************",
"************************************************",
"************************************************",
"**********************    *  *******************",
"********************** OOo O   *****************",
"**********************  OOoOoOO ****************",
"********************* oOOOOOOOOO ***************",
"******************** oOOOOOOOOOOO **************",
"******************** oOOoOOOooOOO **************",
"******************** ooooOOOo@@oOo *************",
"******************** oOooOOo@@@@oo *************",
"******************** oOO@oO@X&&X o *************",
"******************** ooO@@o&X&&X  **************",
"********************* oo@@@&&&&@ ***************",
"********************** oooo@@@@% ***************",
"*********************** OOOOOo%% ***************",
"********************** OOoOO&&&% ***************",
"********************* OOooo&oo& ****************",
"********************* ooo$$##  *****************",
"********************. OO$$#+OO *****************",
"*******************.. OOo   oO .****************",
"*******************.............****************",
"********************...........*****************",
"************************************************",
"************************************************",
"************************************************",
"************************************************",
"************************************************"
};
