/* XPM */
static const char *tile[] = {
/* columns rows colors chars-per-pixel */
"38 32 8 1 ",
"  c #21B6FB",
". c #0083B7",
"X c #056592",
"o c #002A3E",
"O c #304246",
"+ c #233D6D",
"@ c #151123",
"# c white",
/* pixels */
"          . ...    X      .    XoOo   ",
"  . .. .XXX...     o ..........o oo.X.",
" ........XXXX...   o ..X.......o oX.XX",
"..XX+++++++++X.... o ..X.XXXXX.o.X.X+X",
".XX@.....XX.Xoo++X.@.XXXXX+XXX.X..++++",
"XX+X....X...X+o+++X@X++++++++X.o.+++++",
"X++@X  ...X++oo+++X@...XX..oo+Xo.+.XX.",
"X++oXXX  X+++oo+++X@.++++++++++o+.X+++",
"X++o+XXX.+++o+o++++@X++++ooooooo+X++++",
"+++ooXXX +++o+@+.....XX+oo+XXXoo+X++++",
"@@@@o+XX.+++o@@o.XXXXXo+ooooo++o++ooo+",
"@XX+Xooooooo@+++.XXXX@oooo@ooo+@+ooooo",
"@X+++++@@@@@++++XXXoooooo@@@oo+@+ooooo",
"@X++++XXX+++++++X@oooooo@@@@@o+@@ooooo",
"@X+++XXX+++++o++ooooooo@@@@@@@@@@ooooo",
"@+++X+++++oo+X++oo......XX.XXXX+@@@+XX",
"@X+Xo+++++ooo+++oo.XXX+++X+XX+++@@+ooo",
"@X++o++o+++XX+++ooXXX++++++++oo+@@+ooo",
"@Xoooo+o++ooo++oo@X+X+XX+X+++oo+@@+ooo",
"@+oo@oo+++ooooooo@++++++ooo+++o+@@+@@@",
"@+@@+oooo@@@@@@@@@X+o.X.XXXX++oo@@@@@@",
"@@@@@@@@@@@+++++o@++o.++++++++oo@@@@@@",
"@o+++++++o@oooooo@X+oX+++++++ooo@@@@@@",
"@++ooooo+@XXX+X+o@+ooX++@@oooooo@@@@@o",
"@+oo@oooo@++++++o@@@@X@+@@@@@@@@@@@@oo",
"@+oo@@@oo@+oooooo@@@@X@@@@@@@@@@@@@oo@",
"@oo@@@@oo@+@ooooo@@@@@@@@@@@@@@@@@@@@@",
"@@o@@@@@@@o@@ooo@@@@@@@@@@@@@@@@@@@@@@",
"@@o@@@@@@@o@@@@@@@@@@@@@@@@@@@@@@@@@@@",
"@@@@@@@@@@o@@@@@@@@@@@@@@@@@@@@@@@@@@@",
"@@@@@@@@@@@@@@@@@@@@@@@@@@@@@@@@@@@@@@",
"@@@@@@@@@@@@@@@@@@@@@@@@@@@@@@@@@@@@@@"
};
