/* XPM */
static const char *item_148[] = {
/* columns rows colors chars-per-pixel */
"32 32 3 1 ",
"  c #E17B50",
". c #FAFA82",
"X c #1C1429",
/* pixels */
"XXXXXXXXXXXXXXXXXXXXXXXXXXXXXXXX",
"XXXXXXXXXXXXXXXXXXXXXXXXXXXXXXXX",
"XXXXXXXXXXXXXXXXXXXXXXXXXXXXXXXX",
"XXXXXXXXXXXXXXXXXXXXXXXXXXXXXXXX",
"XXXXXXXXXXXXXXXXXXXXXXXXXXXXXXXX",
"XXXXXXXXXXXXXXXXXXXXXXXXXXXXXXXX",
"XXXXXXXXXXXXXXXXXXXXXXXXXXXXXXXX",
"XXXXXXXXXXXXXX...XXXXXXXXXXXXXXX",
"XXXXXXXXXXXXX.  ..XXXXXXXXXXXXXX",
"XXXXXXXXXXXXX   ..  XXXXXXXXXXXX",
"XXXXXXXXXXXXX..X..  .XXXXXXXXXXX",
"XXXXXXXXXXX... X  X..XXXXXXXXXXX",
"XXXXXXXXXX... ..XXX..XXXXXXXXXXX",
"XXXXXXXXX...XXX.....XXXXXXXXXXXX",
"XXXXXXXXX..XXXXXX  X .XXXXXXXXXX",
"XXXXXXXX..XXXXXXXXXX ..XXXXXXXXX",
"XXXXXXXX..XXXXXXXXXXX..XXXXXXXXX",
"XXXXXXXX..XXXXXXXXXXX..XXXXXXXXX",
"XXXXXXXXX.XXXXXXXXXXX.XXXXXXXXXX",
"XXXXXXXXX..XXXXXXXXX .XXXXXXXXXX",
"XXXXXXXXXX   XXXXX   XXXXXXXXXXX",
"XXXXXXXXXXX         XXXXXXXXXXXX",
"XXXXXXXXXXXXX     XXXXXXXXXXXXXX",
"XXXXXXXXXXXXXXXXXXXXXXXXXXXXXXXX",
"XXXXXXXXXXXXXXXXXXXXXXXXXXXXXXXX",
"XXXXXXXXXXXXXXXXXXXXXXXXXXXXXXXX",
"XXXXXXXXXXXXXXXXXXXXXXXXXXXXXXXX",
"XXXXXXXXXXXXXXXXXXXXXXXXXXXXXXXX",
"XXXXXXXXXXXXXXXXXXXXXXXXXXXXXXXX",
"XXXXXXXXXXXXXXXXXXXXXXXXXXXXXXXX",
"XXXXXXXXXXXXXXXXXXXXXXXXXXXXXXXX",
"XXXXXXXXXXXXXXXXXXXXXXXXXXXXXXXX"
};
