/* XPM */
static const char *tile_341[] = {
/* columns rows colors chars-per-pixel */
"32 32 4 1 ",
"  c #0C1317",
". c #5A5875",
"X c #D3D9B2",
"o c None",
/* pixels */
"oooooooooooooooooooooooooooooooo",
"oXXXXXXXXXXXXXXXXXXXXXXXXXXXXXXo",
"oXXXXXXXXXXXXXXXXXXXXXXXXXXXXXXo",
"oXXXXXXXXXXXXXXXXXXXXXXXXXXXXXXo",
"o..............................o",
"o..............................o",
"o..............................o",
"o....                      ....o",
"o....                      ....o",
"o....                      ....o",
"o....                      ....o",
"o....                      ....o",
"o....                      ....o",
"o....                      ....o",
"o....                      ....o",
"o....                      ....o",
"o....                      ....o",
"o....                      ....o",
"o....                      ....o",
"o....                      ....o",
"o....                      ....o",
"o....                      ....o",
"o....                      ....o",
"o....                      ....o",
"o....                      ....o",
"o....                      ....o",
"o....                      ....o",
"o....                      ....o",
"o....                      ....o",
"o....                      ....o",
"o....                      ....o",
"oooooooooooooooooooooooooooooooo"
};
