/* XPM */
static const char *frame_132[] = {
/* columns rows colors chars-per-pixel */
"32 32 13 1 ",
"  c black",
". c #1A130F",
"X c #10162E",
"o c #17394A",
"O c #5A5875",
"+ c #FF4D00",
"@ c #3B6983",
"# c #3494CB",
"$ c #00EDFF",
"% c #999F8E",
"& c #FAE898",
"* c #D3D9B2",
"= c #1C1429",
/* pixels */
"================================",
"========$$#============#$=======",
"======$$$$$#===========$$$======",
"====$$$$$$$#====#$====#$$$$$====",
"===$==$$$$$##==$  $===##$$$=$===",
"=====$$$$=##o=$ $  #==###$$$====",
"====$$$=$===%o#    $oo##=$$$$$==",
"==$$$$$==%%O% o#  $o %o===$$$$$=",
"===$$$===%%O%   #$   %O%==$$$===",
"==$$$===%%%%%        %O%%==#$$==",
"=$=$$===%%%%%%       %%%%%=###$=",
"===##===o%%%%o%%    %O%%%%==##==",
"===##====o%%o%%%%%%%%%o%%o==##==",
"===##====Ooo=%%%%%%%%%Ooo===##==",
"==###===OOOO=%%%%%*%%%OO====##==",
"=$$##===OOOO=.%%%%*%%%OO=====#==",
"==$$====%%%O=X%%%%*%%oOOO====#$=",
"==$=====%%%%=@o%%%%%%oOOO====#$=",
"=$$=====%%%==@@o%%%%o@=O%=====$=",
"=$======%%===@@&&@@&@@=%%%====$=",
"$=======%%%=@@@&@@@@&@=%+++===$=",
"========%%==@@&@@@@@@&=+$$======",
"=========%==&&@@@@@@@@@=$$======",
"============@@@@@@@@@@@==$$=====",
"============@@@@@@@@@@@==$$=====",
"============@=@@@@@@@=@===$$====",
"==============@@=@@@@=====$$====",
"=============@=@=@=@=======$$===",
"===========================$$===",
"============================$$==",
"============================$$==",
"================================"
};
